<?xml version="1.0" standalone="no"?>
<!DOCTYPE svg PUBLIC "-//W3C//DTD SVG 20010904//EN"
 "http://www.w3.org/TR/2001/REC-SVG-20010904/DTD/svg10.dtd">
<svg version="1.0" xmlns="http://www.w3.org/2000/svg"
 width="280.000000pt" height="800.000000pt" viewBox="0 0 280.000000 800.000000"
 preserveAspectRatio="xMidYMid meet">

<g transform="translate(0.000000,800.000000) scale(0.100000,-0.100000)"
fill="#000000" stroke="none">
<path d="M1110 7989 c-167 -32 -331 -192 -369 -360 -7 -29 -11 -880 -11 -2494
l-1 -2450 -86 -55 c-117 -74 -318 -274 -397 -394 -108 -164 -184 -353 -222
-546 -27 -141 -25 -410 4 -547 124 -578 540 -997 1113 -1120 131 -28 401 -25
538 5 137 31 223 62 352 129 584 301 883 980 719 1630 -86 341 -300 645 -587
837 l-93 61 0 57 0 58 352 2 352 3 15 26 c13 24 13 29 -2 53 l-17 26 -350 0
-350 0 0 340 0 340 230 0 c217 0 231 1 250 20 25 25 25 55 0 80 -19 19 -33 20
-250 20 l-230 0 0 340 0 340 352 2 352 3 15 26 c13 24 13 29 -2 53 l-17 26
-350 0 -350 0 0 340 0 340 198 0 c163 0 201 3 220 16 28 19 29 57 2 84 -19 19
-33 20 -220 20 l-200 0 0 340 0 340 349 0 350 0 15 22 c21 30 20 44 -4 68 -19
19 -33 20 -365 20 l-345 0 0 299 0 300 236 3 c220 3 237 4 250 22 19 27 18 52
-6 76 -19 19 -33 20 -250 20 l-230 0 0 300 0 300 345 0 c341 0 344 0 365 22
25 27 25 39 -1 72 l-20 26 -343 0 -343 0 -12 70 c-34 191 -195 355 -380 390
-65 12 -508 11 -571 -1z m632 -141 c73 -34 142 -103 176 -176 l27 -57 3 -2501
2 -2501 28 -12 c74 -34 235 -153 318 -237 391 -393 493 -990 258 -1503 -55
-121 -159 -267 -264 -371 -185 -186 -423 -311 -674 -355 -113 -19 -318 -19
-430 0 -395 69 -735 322 -920 685 -100 196 -146 387 -146 611 0 468 237 893
632 1130 l83 50 5 2492 c5 2360 6 2494 23 2537 39 100 113 174 214 216 57 24
63 24 333 21 275 -2 275 -2 332 -29z"/>
<path d="M1339 4650 c-143 -24 -262 -136 -295 -279 -11 -45 -14 -276 -14
-1151 l0 -1096 -30 -17 c-45 -27 -145 -122 -184 -175 -55 -75 -104 -184 -127
-279 -31 -129 -24 -294 18 -416 43 -124 85 -189 188 -292 73 -74 106 -98 175
-132 299 -146 612 -94 845 141 89 90 146 186 187 316 30 97 33 297 5 400 -41
155 -150 318 -273 408 l-64 47 -2 1120 c-3 1096 -3 1121 -23 1167 -74 171
-236 267 -406 238z m-61 -812 c9 -9 12 -179 12 -703 0 -381 -3 -740 -7 -799
-5 -92 -9 -108 -26 -118 -14 -7 -27 -7 -43 1 l-24 11 0 788 c0 697 2 790 16
810 17 24 53 29 72 10z m-154 -1914 c26 -25 19 -42 -39 -96 -120 -111 -159
-213 -153 -391 3 -97 8 -120 32 -174 30 -66 123 -165 183 -196 56 -30 52 -97
-6 -97 -63 0 -212 138 -261 242 -42 89 -53 156 -47 283 8 170 49 265 163 381
67 67 98 79 128 48z"/>
</g>
</svg>
